<?xml version="1.0" encoding="UTF-8" standalone="no"?>
<svg
   id="Camada_1"
   data-name="Camada 1"
   viewBox="0 0 800 800"
   version="1.1"
   sodipodi:docname="commune-logo-nolines.svg"
   width="800"
   height="800"
   inkscape:version="1.3.2 (091e20ef0f, 2023-11-25)"
   xmlns:inkscape="http://www.inkscape.org/namespaces/inkscape"
   xmlns:sodipodi="http://sodipodi.sourceforge.net/DTD/sodipodi-0.dtd"
   xmlns="http://www.w3.org/2000/svg"
   xmlns:svg="http://www.w3.org/2000/svg">
  <sodipodi:namedview
     id="namedview15"
     pagecolor="#ffffff"
     bordercolor="#000000"
     borderopacity="0.25"
     inkscape:showpageshadow="2"
     inkscape:pageopacity="0.0"
     inkscape:pagecheckerboard="0"
     inkscape:deskcolor="#d1d1d1"
     inkscape:zoom="0.45537677"
     inkscape:cx="576.44575"
     inkscape:cy="432.60881"
     inkscape:window-width="1344"
     inkscape:window-height="1036"
     inkscape:window-x="1212"
     inkscape:window-y="24"
     inkscape:window-maximized="1"
     inkscape:current-layer="Camada_1" />
  <defs
     id="defs1">
    <style
       id="style1">
      .cls-1 {
        fill: #60f770;
      }

      .cls-1, .cls-2, .cls-3, .cls-4, .cls-5, .cls-6, .cls-7, .cls-8, .cls-9, .cls-10, .cls-11, .cls-12, .cls-13, .cls-14, .cls-15 {
        stroke-width: 0px;
      }

      .cls-2 {
        fill: #ff2929;
      }

      .cls-3 {
        fill: #087bff;
      }

      .cls-4 {
        fill: #57de64;
      }

      .cls-5 {
        fill: #ff70db;
      }

      .cls-6 {
        fill: #e6d735;
      }

      .cls-7 {
        fill: #3b96ff;
      }

      .cls-8 {
        fill: #ffa3e8;
      }

      .cls-9 {
        fill: #076fe6;
      }

      .cls-10 {
        fill: #fff36e;
      }

      .cls-11 {
        fill: #ffef3b;
      }

      .cls-12 {
        fill: #ff5c5c;
      }

      .cls-13 {
        fill: #79f786;
      }

      .cls-14 {
        fill: #e62525;
      }

      .cls-15 {
        fill: #e665c5;
      }
    </style>
  </defs>
  <polygon
     class="cls-11"
     points="250,556.73 342.61,610.19 342.61,503.19 250,449.58 "
     id="polygon1"
     transform="translate(-148.15534,-100)" />
  <polygon
     class="cls-6"
     points="350.88,610.19 443.49,556.73 443.49,449.58 350.88,503.19 "
     id="polygon2"
     transform="translate(-148.15534,-100)" />
  <polygon
     class="cls-10"
     points="346.79,495.69 439.56,442.07 346.79,388 254.09,442.07 "
     id="polygon3"
     transform="translate(-148.15534,-100)" />
  <polygon
     class="cls-3"
     points="350.89,731.97 443.43,785.96 443.95,678.88 351.49,624.74 "
     id="polygon4"
     transform="translate(-148.15534,-100)" />
  <polygon
     class="cls-7"
     points="448.36,563.7 355.36,617.31 447.83,671.39 540.83,618.3 "
     id="polygon5"
     transform="translate(-148.15534,-100)" />
  <polygon
     class="cls-2"
     points="351.35,380.42 443.89,434.49 444.42,327.33 351.95,273.26 "
     id="polygon6"
     transform="translate(-148.15534,-100)" />
  <polygon
     class="cls-14"
     points="546.23,381.57 546.33,274.11 453.62,327.34 453.01,434.65 "
     id="polygon7"
     transform="translate(-148.15534,-100)" />
  <polygon
     class="cls-9"
     points="546.23,733.08 546.84,625.62 453.62,678.85 453.01,786.16 "
     id="polygon8"
     transform="translate(-148.15534,-100)" />
  <polygon
     class="cls-12"
     points="449.67,212.22 356.67,265.84 449.14,319.84 542.21,266.82 "
     id="polygon9"
     transform="translate(-148.15534,-100)" />
  <polygon
     class="cls-5"
     points="555.43,381.5 647.89,435.11 648.04,328.18 555.58,274.5 "
     id="polygon10"
     transform="translate(-148.15534,-100)" />
  <polygon
     class="cls-1"
     points="555.33,733.63 647.79,787.78 647.83,680.31 555.48,626.63 "
     id="polygon11"
     transform="translate(-148.15534,-100)" />
  <polygon
     class="cls-15"
     points="657.01,435.26 749.85,381.88 750,274.65 657.24,328.11 "
     id="polygon12"
     transform="translate(-148.15534,-100)" />
  <polygon
     class="cls-4"
     points="657.01,787.78 749.85,734.39 750,627.16 657.24,680.63 "
     id="polygon13"
     transform="translate(-148.15534,-100)" />
  <polygon
     class="cls-8"
     points="652.52,320.68 745.3,267.22 652.68,212.92 559.83,266.91 "
     id="polygon14"
     transform="translate(-148.15534,-100)" />
  <polygon
     class="cls-13"
     points="652.52,672.58 745.3,619.11 652.68,564.81 559.83,618.81 "
     id="polygon15"
     transform="translate(-148.15534,-100)" />
</svg>
