<?xml version="1.0" encoding="UTF-8" standalone="no"?>
<svg
   id="Camada_1"
   data-name="Camada 1"
   viewBox="0 0 800 800"
   version="1.1"
   sodipodi:docname="commune-logo.svg"
   width="800"
   height="800"
   inkscape:version="1.3.2 (091e20ef0f, 2023-11-25)"
   xmlns:inkscape="http://www.inkscape.org/namespaces/inkscape"
   xmlns:sodipodi="http://sodipodi.sourceforge.net/DTD/sodipodi-0.dtd"
   xmlns="http://www.w3.org/2000/svg"
   xmlns:svg="http://www.w3.org/2000/svg">
  <sodipodi:namedview
     id="namedview16"
     pagecolor="#ffffff"
     bordercolor="#000000"
     borderopacity="0.25"
     inkscape:showpageshadow="2"
     inkscape:pageopacity="0.0"
     inkscape:pagecheckerboard="0"
     inkscape:deskcolor="#d1d1d1"
     inkscape:zoom="0.52467323"
     inkscape:cx="445.0389"
     inkscape:cy="392.62533"
     inkscape:window-width="1230"
     inkscape:window-height="1036"
     inkscape:window-x="1326"
     inkscape:window-y="24"
     inkscape:window-maximized="1"
     inkscape:current-layer="Camada_1" />
  <defs
     id="defs1">
    <style
       id="style1">
      .cls-1 {
        fill: #60f770;
      }

      .cls-1, .cls-2, .cls-3, .cls-4, .cls-5, .cls-6, .cls-7, .cls-8, .cls-9, .cls-10, .cls-11, .cls-12, .cls-13, .cls-14, .cls-15, .cls-16 {
        stroke-width: 0px;
      }

      .cls-2 {
        fill: #ff2929;
      }

      .cls-3 {
        fill: #087bff;
      }

      .cls-5 {
        fill: #57de64;
      }

      .cls-6 {
        fill: #ff70db;
      }

      .cls-7 {
        fill: #e6d735;
      }

      .cls-8 {
        fill: #3b96ff;
      }

      .cls-9 {
        fill: #ffa3e8;
      }

      .cls-10 {
        fill: #076fe6;
      }

      .cls-11 {
        fill: #fff36e;
      }

      .cls-12 {
        fill: #ffef3b;
      }

      .cls-13 {
        fill: #ff5c5c;
      }

      .cls-14 {
        fill: #79f786;
      }

      .cls-15 {
        fill: #e62525;
      }

      .cls-16 {
        fill: #e665c5;
      }
    </style>
  </defs>
  <path
     class="cls-12"
     d="m 106.32119,456.31816 v -114.06 l 98.65,56.99 v 113.98 l -98.65,-56.92 z"
     id="path1" />
  <path
     class="cls-7"
     d="m 302.71119,456.31816 v -114.06 l -98.65,56.99 v 113.98 l 98.65,-56.92 z"
     id="path2" />
  <path
     class="cls-11"
     d="m 105.94119,342.70816 98.65,-57.52 98.65,57.52 -98.65,57.07 z"
     id="path3" />
  <path
     class="cls-3"
     d="m 204.06119,626.07816 0.61,-114.06 98.43,57.6 -0.61,113.98 z"
     id="path4" />
  <path
     class="cls-10"
     d="m 400.38119,627.05816 0.61,-113.83 -98.8,56.38 -0.61,113.75 98.8,-56.31 z"
     id="path5" />
  <path
     class="cls-8"
     d="m 203.98119,512.39816 98.96,-56.99 98.43,58.05 -98.96,56.54 z"
     id="path6" />
  <path
     class="cls-2"
     d="m 204.52119,285.56816 0.61,-114.06 98.43,57.6 -0.61,113.98 z"
     id="path7" />
  <path
     class="cls-15"
     d="m 402.20119,286.62816 0.61,-114.29 -99.26,56.61 -0.61,114.21 99.26,-56.54 z"
     id="path8" />
  <path
     class="cls-13"
     d="m 205.27119,171.88816 98.96,-56.99 98.43,58.05 -98.96,56.46 z"
     id="path9" />
  <path
     class="cls-1"
     d="m 400.00119,627.58816 0.61,-114.06 98.43,57.6 -0.61,113.98 z"
     id="path10" />
  <path
     class="cls-5"
     d="m 597.23119,628.57816 0.61,-113.83 -98.8,56.31 -0.61,113.75 z"
     id="path11" />
  <path
     class="cls-14"
     d="m 400.53119,513.53816 98.96,-56.99 98.43,58.05 -98.96,56.54 z"
     id="path12" />
  <path
     class="cls-6"
     d="m 402.20119,286.55816 0.23,-113.91 98.43,57.14 -0.23,113.83 -98.43,-57.07 z"
     id="path13" />
  <path
     class="cls-16"
     d="m 599.43119,286.93816 0.23,-114.06 -98.8,56.92 -0.23,113.98 z"
     id="path14" />
  <path
     class="cls-9"
     d="m 402.12119,173.02816 98.73,-57.45 98.58,57.67 -98.73,56.92 z"
     id="path15" />
  <path
     class="cls-4"
     d="m 601.51119,170.65816 c -0.5,-0.29 -99,-57.91 -99,-57.91 -1.02,-0.6 -2.29,-0.6 -3.32,0 l -96.73,56.28 -96.56,-56.96 c -1.02,-0.6 -2.29,-0.61 -3.32,-0.02 0,0 -98.58,56.6 -99.06,56.87 -1.02,0.58 -1.69,1.4 -1.7,2.57 l -0.59,111.84 -95.55,55.71 c -0.35,0.07 -2.2,1.07 -2.46,1.43 -0.47,1.01 -0.2,3.73 -0.2,3.73 v 112.11 c 0,1.18 0.63,2.26 1.65,2.85 l 96.53,55.69 c 0.04,0.08 0.11,0.14 0.16,0.22 l -0.59,110.98 c 0,1.18 0.62,2.27 1.63,2.86 l 96.59,56.45 c 0.12,0.16 1.58,1.15 3.07,1.09 1.61,-0.06 3.1,-1.3 3.4,-1.52 l 94.25,-53.71 97.06,56.72 c 0.51,0.3 1.09,0.45 1.66,0.45 0.57,0 1.25,-0.25 1.63,-0.43 25.6,-12.43 98.8,-56.54 98.8,-56.54 1.02,-0.58 1.66,-1.67 1.66,-2.84 l 0.6,-113.42 c 0.07,-1.06 -0.53,-2.82 -1.54,-3.42 l -98.42,-58.05 c -1.02,-0.6 -2.29,-0.61 -3.31,-0.02 l -96.81,55.75 -95.03,-56.05 v -108.18 l 96.25,-54.82 96.01,55.67 c 0.21,0.22 0.45,0.41 0.71,0.56 0.51,0.3 1.08,0.44 1.65,0.44 0.57,0 1.13,-0.15 1.64,-0.44 l 98.8,-56.84 c 1.02,-0.59 1.65,-1.67 1.65,-2.85 l 0.23,-114.06 c 0,-1.18 -0.42,-1.64 -1.44,-2.23 z m -7.56,456 -92.2,52.47 0.56,-106.13 20.69,-11.82 71.51,-40.76 -0.57,106.23 z m -94.48,-166.31 91.89,54.2 -71.8,41.02 -20.56,11.72 -91.86,-53.76 92.34,-53.18 z m -95.23,59.17 91.49,53.54 -0.57,106.34 -91.49,-53.47 z m -5.33,-234.8 -92.65,52.77 0.26,-49.24 0.3,-56.83 92.3,-52.66 z m -94.7,-166.01 91.44,53.93 -92.21,52.59 -91.36,-53.46 z m -3.97,112.5 -0.41,76.99 -0.15,28.63 -91.86,-53.56 0.56,-105.74 91.86,53.69 z m -99.47,275.8 -91.16,-52.59 v -105.78 l 91.16,52.73 z m -87.69,-164.65 91.15,-53.15 91.33,53.38 -91.04,52.6 -91.44,-52.82 z m 186.34,6.37 v 104.91 l -91.16,52.5 v -104.67 l 91.16,-52.73 z m -1.1,328.62 -90.95,-53.16 0.56,-105.67 90.95,53.23 z m 98.4,-51.99 -90.91,51.81 0.56,-105.65 90.91,-51.94 z m -2.3,-112.17 -91.76,52.36 -90.7,-53.08 91.63,-52.86 z m 102.93,-175.27 -91.84,-53.25 0.56,-105.55 91.49,53.04 z m 3.51,-111.93 -91.71,-53.24 91.7,-53.35 91.81,53.72 -91.8,52.88 z m 95.28,59.04 -92.21,53.05 0.2,-100.14 v -5.95 c 0,0 92.23,-53.16 92.23,-53.16 l -0.21,106.2 z"
     id="path16" />
</svg>
